<svg width="14" height="14" viewBox="0 0 14 14" fill="none" xmlns="http://www.w3.org/2000/svg">
<path d="M7 4.08333C5.39175 4.08333 4.08333 5.39175 4.08333 7C4.08333 8.60825 5.39175 9.91667 7 9.91667C8.60825 9.91667 9.91667 8.60825 9.91667 7C9.91667 5.39175 8.60825 4.08333 7 4.08333ZM7 8.75C6.03517 8.75 5.25 7.96483 5.25 7C5.25 6.03517 6.03517 5.25 7 5.25C7.96483 5.25 8.75 6.03517 8.75 7C8.75 7.96483 7.96483 8.75 7 8.75ZM13.4167 6.41667H12.8042C12.5294 3.66508 10.3349 1.47 7.58333 1.19583V0.583333C7.58333 0.26075 7.322 0 7 0C6.678 0 6.41667 0.26075 6.41667 0.583333V1.19583C3.66508 1.47 1.47 3.66508 1.19583 6.41667H0.583333C0.261333 6.41667 0 6.67742 0 7C0 7.32258 0.261333 7.58333 0.583333 7.58333H1.19583C1.47058 10.3349 3.66508 12.53 6.41667 12.8042V13.4167C6.41667 13.7392 6.678 14 7 14C7.322 14 7.58333 13.7392 7.58333 13.4167V12.8042C10.3349 12.5294 12.53 10.3349 12.8042 7.58333H13.4167C13.7387 7.58333 14 7.32258 14 7C14 6.67742 13.7387 6.41667 13.4167 6.41667ZM7 11.6667C4.42692 11.6667 2.33333 9.57308 2.33333 7C2.33333 4.42692 4.42692 2.33333 7 2.33333C9.57308 2.33333 11.6667 4.42692 11.6667 7C11.6667 9.57308 9.57308 11.6667 7 11.6667Z" fill="#3D4953"/>
</svg>
