<svg width="40" height="40" viewBox="0 0 40 40" fill="none" xmlns="http://www.w3.org/2000/svg">
<g clip-path="url(#clip0_379_10115)">
<path d="M37.1133 20.4805C36.1512 20.4805 35.3712 21.2605 35.3712 22.2226V14.0598C35.3712 13.0977 34.5913 12.3177 33.6291 12.3177C32.6669 12.3177 31.887 13.0977 31.887 14.0598V12.3299C31.887 11.3678 31.1071 10.5879 30.1449 10.5879C29.1827 10.5879 28.4028 11.3678 28.4028 12.3299V14.0598C28.4028 13.0977 27.6228 12.3177 26.6607 12.3177C25.6985 12.3177 24.9185 13.0977 24.9185 14.0598V18.1023C24.9185 17.1402 24.1386 16.3602 23.1764 16.3602C22.2143 16.3602 21.4343 17.1401 21.4343 18.1023V29.5254C21.4343 30.7489 21.7971 31.945 22.4767 32.9625L23.7855 34.9219C24.4651 35.9393 24.8278 37.1354 24.8278 38.359V39.9995H35.3709V38.645C35.3709 37.2698 35.8289 35.9339 36.6728 34.8481L37.5532 33.7151C38.397 32.6292 38.8551 31.2933 38.8551 29.9182V22.2227C38.8554 21.2605 38.0754 20.4805 37.1133 20.4805Z" fill="#F6A96C"/>
<path d="M1.14429 22.2227V29.9182C1.14429 31.2934 1.60233 32.6293 2.44616 33.7151L3.32663 34.8481C4.17046 35.934 4.62851 37.2699 4.62851 38.645V39.9995H15.1716V38.3591C15.1716 37.1355 15.5343 35.9395 16.2139 34.922L17.5227 32.9626C18.2023 31.9452 18.5651 30.7491 18.5651 29.5255V18.1023C18.5651 17.1402 17.7851 16.3602 16.823 16.3602C15.8608 16.3602 15.0808 17.1401 15.0808 18.1023V14.0598C15.0808 13.0977 14.3009 12.3177 13.3387 12.3177C12.3766 12.3177 11.5966 13.0977 11.5966 14.0598V12.3299C11.5966 11.3678 10.8167 10.5879 9.85452 10.5879C8.89233 10.5879 8.11241 11.3678 8.11241 12.3299V14.0598C8.11241 13.0977 7.33249 12.3177 6.3703 12.3177C5.40811 12.3177 4.62819 13.0977 4.62819 14.0598V22.2227C4.62819 21.2605 3.84819 20.4806 2.88608 20.4806C1.92429 20.4806 1.14429 21.2605 1.14429 22.2227Z" fill="#F6A96C"/>
<path d="M37.1132 20.4805C36.8234 20.4805 36.5488 20.5513 36.308 20.6777C36.8644 20.9684 37.2445 21.5514 37.2445 22.223V29.5552C37.2445 30.9305 36.7871 32.2664 35.9432 33.3518L35.0623 34.4848C34.2185 35.571 33.7603 37.27 33.7603 38.6453V39.9997H35.3706V38.6453C35.3706 37.27 35.8288 35.9341 36.6727 34.8479L37.5536 33.7149C38.3975 32.6295 38.8549 31.2937 38.8549 29.9184V22.2229C38.8549 21.2608 38.0755 20.4805 37.1132 20.4805Z" fill="#EA9B58"/>
<path d="M28.4036 14.06V27.7179H28.1555C27.4031 27.7179 26.7931 27.108 26.7931 26.3555V14.06C26.7931 13.5793 26.5983 13.1437 26.2826 12.828C26.1578 12.7032 26.0137 12.5977 25.8558 12.5156C26.0966 12.3892 26.3704 12.3184 26.6611 12.3184C27.1418 12.3184 27.5782 12.5132 27.893 12.828C28.2087 13.1437 28.4036 13.5793 28.4036 14.06Z" fill="#EA9B58"/>
<path d="M24.9191 18.102V27.7177H24.6581C23.9057 27.7177 23.2957 27.1078 23.2957 26.3553V18.102C23.2957 17.4336 22.9188 16.8531 22.3657 16.5608C22.6073 16.4328 22.8835 16.3604 23.1766 16.3604C24.1388 16.3603 24.9191 17.1405 24.9191 18.102Z" fill="#EA9B58"/>
<path d="M31.887 12.3304V27.7179H31.4899C30.7375 27.7179 30.1275 27.108 30.1275 26.3555V12.3304C30.1275 11.8497 29.9327 11.4132 29.617 11.0984C29.5123 10.9938 29.3939 10.902 29.2651 10.8262C29.5227 10.6748 29.8239 10.5879 30.1452 10.5879C30.6266 10.5879 31.0615 10.7827 31.3771 11.0984C31.6921 11.4132 31.887 11.8497 31.887 12.3304Z" fill="#EA9B58"/>
<path d="M16.8229 16.3604C16.5065 16.3604 16.21 16.4444 15.9539 16.5935C16.4757 16.894 16.8262 17.457 16.8262 18.1025V29.5259C16.8262 30.7494 16.4637 31.9452 15.7842 32.9634L14.4751 34.9228C13.7955 35.9401 13.4331 37.1359 13.4331 38.3595V40.0001H15.1713V38.3595C15.1713 37.136 15.5337 35.9402 16.2133 34.9228L17.5225 32.9634C18.202 31.9453 18.5644 30.7495 18.5644 29.5259V18.1025C18.5644 17.1407 17.7848 16.3604 16.8229 16.3604Z" fill="#EA9B58"/>
<path d="M8.11342 33.9662H7.54037C6.9485 33.9662 6.41225 33.6231 6.15725 33.089C5.48303 31.6771 4.4985 30.9362 3.8124 30.568C3.32264 30.3052 3.01803 29.7941 3.01803 29.2384V22.223C3.01803 21.5514 2.63795 20.9684 2.08154 20.6777C2.32232 20.5513 2.59607 20.4805 2.88678 20.4805C3.84818 20.4805 4.6285 21.2607 4.6285 22.223V28.7685C4.62842 28.7685 7.92256 30.1631 8.11342 33.9662Z" fill="#EA9B58"/>
<path d="M15.0805 14.06V27.7179H14.8325C14.08 27.7179 13.47 27.108 13.47 26.3555V14.06C13.47 13.5793 13.2752 13.1437 12.9596 12.828C12.8347 12.7032 12.6907 12.5977 12.5328 12.5156C12.7736 12.3892 13.0473 12.3184 13.338 12.3184C13.8187 12.3184 14.2551 12.5132 14.57 12.828C14.8857 13.1437 15.0805 13.5793 15.0805 14.06Z" fill="#EA9B58"/>
<path d="M11.5968 12.3304V27.7179H11.1997C10.4473 27.7179 9.8374 27.108 9.8374 26.3555V12.3304C9.8374 11.8497 9.64255 11.4132 9.32685 11.0984C9.22216 10.9938 9.1038 10.902 8.97498 10.8262C9.23263 10.6748 9.5338 10.5879 9.85505 10.5879C10.3365 10.5879 10.7714 10.7827 11.087 11.0984C11.4019 11.4132 11.5968 11.8497 11.5968 12.3304Z" fill="#EA9B58"/>
<path d="M8.1162 14.06V27.7179H7.73691C6.98448 27.7179 6.37448 27.108 6.37448 26.3555V14.06C6.37448 13.5793 6.17964 13.1437 5.86394 12.828C5.75683 12.7209 5.63527 12.6276 5.50323 12.5519C5.75933 12.4029 6.05722 12.3184 6.37448 12.3184C6.85519 12.3184 7.29081 12.5132 7.60644 12.828C7.92136 13.1437 8.1162 13.5793 8.1162 14.06Z" fill="#EA9B58"/>
<path d="M20 4.01742C19.6716 4.01742 19.4053 3.75117 19.4053 3.42273V0.594688C19.4053 0.26625 19.6716 0 20 0C20.3285 0 20.5947 0.26625 20.5947 0.594688V3.42266C20.5947 3.75109 20.3285 4.01742 20 4.01742Z" fill="#B5ADB6"/>
<path d="M15.3062 5.27548C15.1006 5.27548 14.9008 5.16884 14.7906 4.97798L13.3767 2.52892C13.2124 2.24447 13.3099 1.88072 13.5943 1.7165C13.8788 1.55228 14.2425 1.6497 14.4067 1.93416L15.8207 4.38322C15.9849 4.66767 15.8875 5.03142 15.6031 5.19564C15.5093 5.24978 15.407 5.27548 15.3062 5.27548Z" fill="#B5ADB6"/>
<path d="M11.8685 8.71208C11.7676 8.71208 11.6654 8.68637 11.5717 8.63231L9.12267 7.21833C8.83821 7.05411 8.74071 6.69036 8.90501 6.4059C9.06923 6.12145 9.43298 6.02387 9.71743 6.18825L12.1665 7.60223C12.4509 7.76645 12.5484 8.1302 12.3842 8.41465C12.274 8.60536 12.0741 8.71208 11.8685 8.71208Z" fill="#B5ADB6"/>
<path d="M28.1315 8.71212C27.926 8.71212 27.7261 8.60548 27.616 8.41462C27.4518 8.13017 27.5492 7.76642 27.8336 7.6022L30.2827 6.18821C30.5671 6.02392 30.9309 6.12142 31.0951 6.40587C31.2593 6.69032 31.1619 7.05407 30.8775 7.21829L28.4284 8.63228C28.3346 8.68642 28.2324 8.71212 28.1315 8.71212Z" fill="#B5ADB6"/>
<path d="M24.6938 5.27544C24.5929 5.27544 24.4907 5.24974 24.397 5.19567C24.1126 5.03146 24.0151 4.66771 24.1794 4.38325L25.5933 1.93419C25.7575 1.64974 26.1212 1.55224 26.4058 1.71653C26.6902 1.88075 26.7877 2.2445 26.6234 2.52896L25.2094 4.97802C25.0993 5.16872 24.8994 5.27544 24.6938 5.27544Z" fill="#B5ADB6"/>
<path d="M35.3375 14.0343C35.3375 13.5607 35.1456 13.1315 34.8354 12.8205C34.5243 12.5104 34.0952 12.3184 33.6216 12.3184C33.309 12.3184 33.0155 12.4016 32.7632 12.5484C32.8933 12.623 33.0132 12.7151 33.1186 12.8205C33.4297 13.1316 33.6216 13.5607 33.6216 14.0343L33.6393 28.1644C33.6393 28.1644 30.1648 29.6354 29.9636 33.6466H30.568C31.1923 33.6466 31.7579 33.2848 32.0269 32.7215C32.7381 31.2323 33.7765 30.4509 34.5002 30.0625C35.0168 29.7852 35.338 29.2463 35.338 28.66L35.3375 14.0343Z" fill="#EA9B58"/>
</g>
<defs>
<clipPath id="clip0_379_10115">
<rect width="40" height="40" fill="white"/>
</clipPath>
</defs>
</svg>
