<svg width="40" height="40" viewBox="0 0 40 40" fill="none" xmlns="http://www.w3.org/2000/svg">
<g clip-path="url(#clip0_379_10159)">
<path d="M34.2052 40.4125H19.4424C18.9642 40.4125 18.5764 40.0248 18.5764 39.5466V5.86594C18.5765 5.38766 18.9642 5 19.4424 5H34.2052C34.8275 5 35.332 5.50445 35.332 6.1268V39.2858C35.332 39.908 34.8275 40.4125 34.2052 40.4125Z" fill="#57BE92"/>
<path d="M32.1126 38.3518H22.0856C21.7131 38.3518 21.4111 38.0498 21.4111 37.6772V7.73605C21.4111 7.36355 21.713 7.06152 22.0856 7.06152H32.1126C32.5572 7.06152 32.9175 7.42184 32.9175 7.86637V37.547C32.9175 37.9914 32.5572 38.3518 32.1126 38.3518Z" fill="#FFF2E2"/>
<path d="M29.2958 40.4125H5.79477C5.1725 40.4125 4.66797 39.908 4.66797 39.2857V6.1268C4.66805 5.50445 5.1725 5 5.79477 5H29.2958C29.918 5 30.4226 5.50445 30.4226 6.1268V39.2858C30.4225 39.908 29.918 40.4125 29.2958 40.4125Z" fill="#ADE194"/>
<path d="M29.2954 5H26.8809C27.5031 5 28.0077 5.50445 28.0077 6.1268V39.2858C28.0077 39.908 27.5032 40.4126 26.8809 40.4126H29.2953C29.9176 40.4126 30.4221 39.9081 30.4221 39.2858V6.1268C30.4221 5.50445 29.9177 5 29.2954 5Z" fill="#6ED5A1"/>
<path d="M7.88734 40.4125H5.79477C5.1725 40.4125 4.66797 39.908 4.66797 39.2857V6.1268C4.66805 5.50445 5.1725 5 5.79477 5H7.88734V40.4125Z" fill="#DC8758"/>
<path d="M28.0081 8.14938C27.6027 8.14938 27.2728 7.81953 27.2728 7.41406C27.2728 7.09047 27.0105 6.82812 26.6868 6.82812H11.6231C11.2995 6.82812 11.0371 7.09047 11.0371 7.41406C11.0371 7.81953 10.7073 8.14938 10.3018 8.14938C9.97823 8.14938 9.71588 8.41172 9.71588 8.73531V36.6763C9.71588 36.9999 9.97823 37.2623 10.3018 37.2623C10.7073 37.2623 11.0371 37.5921 11.0371 37.9976C11.0371 38.3212 11.2995 38.5835 11.6231 38.5835H26.6867C27.0104 38.5835 27.2727 38.3212 27.2727 37.9976C27.2727 37.5921 27.6026 37.2623 28.008 37.2623C28.3317 37.2623 28.5939 36.9999 28.5939 36.6763V8.73531C28.594 8.41172 28.3317 8.14938 28.0081 8.14938ZM27.4221 36.1824C26.841 36.3705 26.381 36.8304 26.193 37.4116H12.117C11.9289 36.8305 11.469 36.3705 10.8878 36.1824V9.22922C11.4689 9.04117 11.9289 8.58125 12.117 8H26.193C26.381 8.58117 26.841 9.04117 27.4221 9.22922V36.1824Z" fill="#FFE177"/>
<path d="M23.0689 19.716L23.5528 20.6964C23.6304 20.8539 23.7807 20.963 23.9543 20.9882L25.0364 21.1455C25.63 21.2318 25.8671 21.9614 25.4375 22.3801L24.6546 23.1433C24.5289 23.2658 24.4715 23.4424 24.5012 23.6154L24.6861 24.6931C24.7875 25.2843 24.1668 25.7353 23.6358 25.4561L22.668 24.9473C22.5126 24.8656 22.327 24.8656 22.1716 24.9473L21.2038 25.4561C20.6728 25.7353 20.0521 25.2844 20.1536 24.6931L20.3384 23.6154C20.3681 23.4424 20.3107 23.2659 20.185 23.1433L19.4021 22.3801C18.9725 21.9614 19.2095 21.2318 19.8032 21.1455L20.8853 20.9882C21.059 20.963 21.2092 20.8539 21.2868 20.6964L21.7707 19.716C22.0362 19.178 22.8033 19.178 23.0689 19.716Z" fill="#FFE177"/>
<path d="M22.7652 28.2821C22.9505 28.2819 23.1338 28.273 23.3147 28.2559C23.5305 28.2355 23.6181 28.5246 23.4283 28.6293C22.3966 29.1986 21.2064 29.5164 19.9413 29.5003C16.1446 29.4521 13.0443 26.3538 12.9939 22.5572C12.9416 18.6253 16.1129 15.4219 20.0328 15.4219C21.264 15.4219 22.4218 15.738 23.4287 16.2937C23.6182 16.3982 23.5301 16.6873 23.3147 16.6669C23.1318 16.6495 22.9464 16.6407 22.759 16.6407C19.4588 16.6407 16.7996 19.388 16.9439 22.7202C17.0794 25.8502 19.6321 28.2854 22.7652 28.2821Z" fill="#FFE177"/>
</g>
<defs>
<clipPath id="clip0_379_10159">
<rect width="40" height="40" fill="white"/>
</clipPath>
</defs>
</svg>
