<svg width="40" height="40" viewBox="0 0 40 40" fill="none" xmlns="http://www.w3.org/2000/svg">
<path d="M7.92178 32.8906H3.91795C3.36515 32.8906 2.91699 33.4153 2.91699 34.0625C2.91699 34.7097 3.36515 35.2344 3.91795 35.2344H7.92178C8.47458 35.2344 8.92274 34.7097 8.92274 34.0625C8.92274 33.4153 8.47458 32.8906 7.92178 32.8906ZM36.0821 32.8906H11.9256C11.3728 32.8906 10.9247 33.4153 10.9247 34.0625C10.9247 34.7097 11.3728 35.2344 11.9256 35.2344H36.0821C36.6348 35.2344 37.083 34.7097 37.083 34.0625C37.083 33.4153 36.6348 32.8906 36.0821 32.8906ZM36.0821 2.42188H3.91795C3.36515 2.42188 2.91699 2.94656 2.91699 3.59375V27.0312C2.91699 27.6784 3.36515 28.2031 3.91795 28.2031H36.0821C36.6348 28.2031 37.083 27.6784 37.083 27.0312V3.59375C37.083 2.94656 36.6348 2.42188 36.0821 2.42188Z" fill="#FFAA00"/>
<path d="M24.4515 14.2644L16.4438 9.57686C16.1335 9.39522 15.7651 9.41459 15.47 9.62819C15.1749 9.8417 14.9952 10.2189 14.9952 10.6251V20.0001C14.9952 20.4062 15.1749 20.7834 15.47 20.9969C15.6307 21.1133 15.8132 21.1719 15.9962 21.1719C16.1491 21.1719 16.3026 21.1309 16.4438 21.0483L24.4515 16.3608C24.7906 16.1622 25.0048 15.7565 25.0048 15.3126C25.0048 14.8687 24.7906 14.463 24.4515 14.2644Z" fill="white"/>
<circle cx="10.083" cy="34" r="3" fill="#CD8A05"/>
</svg>
