<svg width="40" height="40" viewBox="0 0 40 40" fill="none" xmlns="http://www.w3.org/2000/svg">
<path d="M25.3854 31.4843C25.3799 31.3846 25.3709 31.2857 25.3709 31.1853V27.061C25.3709 24.6236 27.1945 22.6082 29.5481 22.2961C29.5309 22.2982 29.5124 22.2975 29.4952 22.3002V9.18914C29.4952 8.86401 29.2677 8.58356 28.9494 8.51688L15.8892 5.76736C15.795 5.74812 15.7002 5.74812 15.606 5.76736L2.54578 8.51688C2.22752 8.58287 2 8.86401 2 9.18914V29.8105C2 30.1357 2.22752 30.4161 2.54578 30.4835L15.606 33.233C15.7002 33.2523 15.795 33.2523 15.8892 33.233L25.3709 31.2362C25.3716 31.32 25.3805 31.4018 25.3854 31.4843Z" fill="#2F3235"/>
<path d="M28.9494 8.51591L15.8892 5.76639C15.795 5.74714 15.7002 5.74714 15.606 5.76639L2.54578 8.51591C2.22752 8.58258 2 8.86372 2 9.18885C2 9.51398 2.22752 9.79443 2.54578 9.8618L15.606 12.6113C15.6527 12.6203 15.7002 12.6258 15.7476 12.6258C15.795 12.6258 15.8425 12.6209 15.8892 12.6106L28.9494 9.86111C29.2677 9.79443 29.4952 9.5133 29.4952 9.18885C29.4952 8.86372 29.2677 8.58258 28.9494 8.51591Z" fill="#FFE077"/>
<path d="M17.8098 23.6235C17.4296 23.6235 17.1224 23.3156 17.1224 22.9362V21.5614C17.1224 21.182 17.4296 20.874 17.8098 20.874C18.1899 20.874 18.4971 21.182 18.4971 21.5614V22.9362C18.4971 23.3156 18.1899 23.6235 17.8098 23.6235Z" fill="#FFE077"/>
<path d="M26.7457 21.562C26.3655 21.562 26.0583 21.2541 26.0583 20.8746V19.4999C26.0583 19.1204 26.3655 18.8125 26.7457 18.8125C27.1258 18.8125 27.433 19.1204 27.433 19.4999V20.8746C27.433 21.2541 27.1258 21.562 26.7457 21.562Z" fill="#FFE077"/>
<path d="M13.6855 23.6235C13.3054 23.6235 12.9981 23.3156 12.9981 22.9362V21.5614C12.9981 21.182 13.3054 20.874 13.6855 20.874C14.0656 20.874 14.3729 21.182 14.3729 21.5614V22.9362C14.3729 23.3156 14.0656 23.6235 13.6855 23.6235Z" fill="#A78F3C"/>
<path d="M4.74951 21.562C4.36939 21.562 4.06213 21.2541 4.06213 20.8746V19.4999C4.06213 19.1204 4.36939 18.8125 4.74951 18.8125C5.12963 18.8125 5.43689 19.1204 5.43689 19.4999V20.8746C5.43689 21.2541 5.12963 21.562 4.74951 21.562Z" fill="#A78F3C"/>
<path d="M10.9365 22.249C10.8911 22.249 10.8464 22.2449 10.8011 22.2353L7.36416 21.5479C6.99229 21.4737 6.75033 21.1114 6.82526 20.7389C6.8995 20.3663 7.26312 20.1257 7.6343 20.2L11.0712 20.8873C11.4431 20.9616 11.685 21.3238 11.6101 21.6964C11.5448 22.0229 11.2575 22.249 10.9365 22.249Z" fill="#A78F3C"/>
<path d="M20.5584 22.2492C20.2374 22.2492 19.9501 22.023 19.8848 21.6965C19.8105 21.324 20.0518 20.9624 20.4237 20.8875L23.8606 20.2001C24.2359 20.1252 24.5947 20.3678 24.6696 20.739C24.7438 21.1116 24.5026 21.4731 24.1307 21.5481L20.6938 22.2354C20.6484 22.2444 20.6024 22.2492 20.5584 22.2492Z" fill="#FFE077"/>
<path d="M2 12.626V15.3755L15.7476 18.8124V16.0629L2 12.626Z" fill="#A78F3C"/>
<path d="M15.7476 16.0629V18.8124L29.4952 15.3755V12.626L15.7476 16.0629Z" fill="#FFE077"/>
<path d="M35.7719 29.1419L31.9731 28.3819C31.5881 28.305 31.25 27.8925 31.25 27.5V26.1806C32.0475 25.3644 32.5 24.2669 32.5 23.125V19.375C32.5 16.9625 30.5369 15 28.125 15C25.7131 15 23.75 16.9625 23.75 19.375V23.125C23.75 24.2669 24.2025 25.3644 25 26.1806V27.5C25 27.8925 24.6619 28.305 24.2769 28.3825L20.4781 29.1425C19.5094 29.3356 18.75 30.2619 18.75 31.25V39.375C18.75 39.72 19.0294 40 19.375 40H36.875C37.2206 40 37.5 39.72 37.5 39.375V31.25C37.5 30.2619 36.7406 29.3356 35.7719 29.1419Z" fill="#F6C09C"/>
<path d="M35.7719 29.1419L31.9731 28.3819C31.5881 28.305 31.25 27.8925 31.25 27.5C31.25 33.125 23.125 35 23.125 38.75V40H36.875C37.2206 40 37.5 39.72 37.5 39.375V31.25C37.5 30.2619 36.7406 29.3356 35.7719 29.1419Z" fill="#F1F2F2"/>
<path d="M28.125 15C25.7131 15 23.75 16.9625 23.75 19.375V23.125C23.75 25.5375 25.7131 27.5 28.125 27.5C30.5369 27.5 32.5 25.5375 32.5 23.125V19.375C32.5 16.9625 30.5369 15 28.125 15Z" fill="#F4B596"/>
<path d="M28.125 25C25.7131 25 23.75 23.0375 23.75 20.625V23.125C23.75 25.5375 25.7131 27.5 28.125 27.5C30.5369 27.5 32.5 25.5375 32.5 23.125V20.625C32.5 23.0375 30.5369 25 28.125 25Z" fill="#2F3235"/>
<path d="M27.5 37.5C27.2381 37.5 26.9944 37.3344 26.9075 37.0725C26.7981 36.7457 26.9744 36.3919 27.3012 36.2825C27.3362 36.2707 30.7756 35.0732 31.9075 31.6775C32.0169 31.3507 32.3669 31.1725 32.6981 31.2825C33.025 31.3919 33.2025 31.7457 33.0931 32.0732C31.76 36.0732 27.8637 37.4132 27.6981 37.4682C27.6319 37.49 27.565 37.5 27.5 37.5Z" fill="#CBD9D9"/>
</svg>
