<svg width="40" height="40" viewBox="0 0 40 40" fill="none" xmlns="http://www.w3.org/2000/svg">
<path d="M31.9827 31.5708V33.8772C31.9827 35.1144 30.9788 36.1238 29.7361 36.1238H7.75823C6.78686 36.1238 6 35.3369 6 34.3656V31.5708C6 29.3893 6.88454 27.4195 8.31175 25.9923C9.74981 24.5596 11.736 23.6751 13.9283 23.6859C14.916 23.6914 15.8114 23.0619 16.1695 22.1394C16.3703 21.6292 16.5548 21.0052 16.7339 19.7354H21.2488C21.4279 20.9889 21.6124 21.613 21.8078 22.1176C21.9869 22.5952 22.3125 22.9859 22.7086 23.2572C23.1102 23.5286 23.5932 23.6859 24.0978 23.6859C28.4554 23.6859 31.9827 27.2133 31.9827 31.5708Z" fill="#F6C09C"/>
<path d="M22.7628 23.2844C22.7465 23.2735 22.7302 23.2681 22.7139 23.2572C22.3178 22.9859 21.9922 22.5952 21.8131 22.1176C21.6177 21.613 21.4332 20.9889 21.2541 19.7354H16.7392C16.5655 21.0106 16.3756 21.6292 16.1748 22.1394C15.9849 22.6169 22.7628 23.2844 22.7628 23.2844Z" fill="#F4B596"/>
<path d="M13.5647 23.7021C11.5189 23.7835 9.66841 24.641 8.31175 25.9922C6.88454 27.4194 6 29.3893 6 31.5708V34.3655C6 35.3369 6.78686 36.1237 7.75823 36.1237H29.7361C30.9734 36.1237 31.9827 35.1198 31.9827 33.8771V31.5708C31.9827 31.3049 31.9665 31.0444 31.9447 30.7839H20.6465C16.7339 30.7839 13.5647 27.6093 13.5647 23.7021Z" fill="#F4B596"/>
<path d="M11.1553 30.6816H11.6979V36.1246H11.1553V30.6816Z" fill="#ED927D"/>
<path d="M33.8448 33.1062C33.6549 33.3449 33.4161 33.6326 33.1231 33.9527C32.8029 34.3055 32.423 34.6962 31.9835 35.1032C31.685 35.3799 31.3594 35.8412 31.0012 36.1234H21.7325C27.0724 34.2729 30.0027 30.7022 31.0826 29.2044C31.1912 29.047 31.354 28.9548 31.5276 28.9222C31.7718 28.868 32.0377 28.9439 32.2114 29.1502C33.0308 30.1052 33.6386 31.2394 33.975 32.4821C34.0347 32.6992 33.9859 32.9271 33.8448 33.1062Z" fill="#EAEAEA"/>
<path d="M33.8448 33.1067C33.6549 33.3455 31.3594 35.8417 31.0012 36.1239H21.7325C22.5357 35.8471 23.2846 35.527 23.9792 35.1797H27.7344C29.8725 35.1797 31.9075 34.2788 33.351 32.6997C33.6549 32.3632 33.8665 32.1299 33.8665 32.1299C33.9099 32.2438 33.9425 32.3632 33.975 32.4826C34.0347 32.6997 33.9859 32.9276 33.8448 33.1067Z" fill="#DBD7D9"/>
<path d="M28.8726 25.3961C27.695 27.4691 22.9304 34.4206 11.6973 35.1803V31.0181C19.6527 29.7971 22.6645 25.9822 23.6901 24.0774C23.8204 23.8387 23.9181 23.6325 23.9886 23.4588C24.108 23.1766 24.3956 22.9867 24.6995 23.0193C26.1484 23.1603 27.4942 23.6596 28.6338 24.4356C28.9594 24.6472 29.0625 25.0651 28.8726 25.3961Z" fill="#EAEAEA"/>
<path d="M27.3314 27.6201C24.9925 30.4908 20.1954 34.6096 11.6973 35.1794V31.0172C12.4027 30.9087 13.0648 30.7838 13.6943 30.6373C13.6943 31.9886 14.9153 33.0088 16.2502 32.7917C21.4109 31.9451 24.9817 29.7474 27.3314 27.6201Z" fill="#DBD7D9"/>
<path d="M31.8681 29.2265C31.6998 29.4815 31.4882 29.7908 31.2277 30.1327C29.8765 31.9289 27.2283 34.7508 23.1583 36.1183H11.6973V35.1741C22.9304 34.4143 27.695 27.4628 28.8726 25.3898L28.7586 25.5852C28.992 25.189 29.5455 25.1076 29.8711 25.4278C30.7719 26.3015 31.4882 27.3814 31.9332 28.5807C32.02 28.8032 31.9875 29.0365 31.8681 29.2265Z" fill="#EAEAEA"/>
<path d="M31.8735 29.2209C31.7053 29.4814 31.4936 29.7853 31.2277 30.138C29.8819 31.9343 27.2337 34.7507 23.1583 36.1236H11.6973V35.1794C12.4136 35.1306 13.0973 35.06 13.7594 34.9623H22.48C22.925 34.9623 23.37 34.8918 23.7878 34.7344C27.5051 33.2964 29.947 30.6753 31.2223 28.9713C31.4448 28.6837 31.6293 28.4232 31.7812 28.1953C31.8355 28.3256 31.8898 28.4558 31.9386 28.5915C32.0146 28.8031 31.9929 29.0364 31.8735 29.2209Z" fill="#DBD7D9"/>
<path d="M22.0628 29.8018C21.01 30.9685 19.5448 31.7174 17.9874 31.891C19.2898 31.0065 20.5867 30.3498 22.0628 29.8018Z" fill="#D1C5CB"/>
<path d="M28.9541 29.8398C28.1347 31.3539 26.7346 32.5477 25.0958 33.085C26.3547 31.8965 27.5595 30.8655 28.9541 29.8398Z" fill="#D1C5CB"/>
<path d="M26.589 13.4192C26.589 14.141 26.1006 14.7487 25.4331 14.9278C24.7439 18.8241 21.9926 21.7437 18.6932 21.7437C15.4101 21.7437 12.6642 18.8404 11.9696 14.9604C11.2424 14.8193 10.6943 14.1844 10.6943 13.4192C10.6943 12.6758 11.2153 12.0571 11.9099 11.8943C12.2355 10.2718 13.2449 9.09961 14.4333 9.09961C14.9814 9.09961 15.5023 9.18101 15.9256 9.49575C16.6202 10.0113 17.3962 10.44 18.2536 10.4888C18.5521 10.5051 18.8451 10.5051 19.1382 10.4888C20.001 10.44 20.777 10.0059 21.4771 9.4849C21.8949 9.17558 22.405 9.09961 22.9531 9.09961C24.1578 9.09961 25.178 10.288 25.4928 11.9269C26.1277 12.1277 26.589 12.7192 26.589 13.4192Z" fill="#F6C09C"/>
<path d="M14.01 9.66342V9.15332C13.0115 9.39209 12.1975 10.472 11.9099 11.8938C11.2153 12.0566 10.6943 12.6752 10.6943 13.4187C10.6943 14.1838 11.2424 14.8187 11.9696 14.9598C12.6642 18.8399 15.4101 21.7431 18.6932 21.7431C21.1135 21.7431 23.2299 20.1694 24.4671 17.798H22.15C17.6513 17.798 14.01 14.1567 14.01 9.66342Z" fill="#F4B596"/>
<path d="M25.5996 13.0174C25.5996 10.8468 24.4112 9.09938 22.9514 9.09938C22.4033 9.09938 21.8932 9.17535 21.4754 9.48467C20.7753 10.0056 19.9993 10.4398 19.1365 10.4886C18.8434 10.5049 18.5504 10.5049 18.2519 10.4886C17.3945 10.4398 16.6185 10.0111 15.9239 9.49552C15.5006 9.18078 14.9797 9.09938 14.4316 9.09938C12.9827 9.09938 11.7942 10.8468 11.7942 13.0174C11.7942 13.0174 8.14755 3.68359 18.6915 3.68359C19.8799 3.68359 22.3002 3.79213 22.9514 5.77285C22.9514 5.77285 27.5858 4.86117 25.5996 13.0174Z" fill="#494643"/>
<path d="M14.005 8.7738C14.0376 8.89319 14.0484 9.14282 14.0105 9.15367C12.7623 9.45756 11.7964 11.0638 11.7964 13.0174C11.7964 13.0174 9.3544 6.74967 14.2764 4.49219C14.0756 4.96973 13.9562 5.48526 13.8856 5.99537C13.7608 6.89619 13.7391 7.88926 14.005 8.7738Z" fill="#3D3935"/>
</svg>
