<svg width="40" height="40" viewBox="0 0 40 40" fill="none" xmlns="http://www.w3.org/2000/svg">
<g clip-path="url(#clip0_376_9884)">
<path d="M4.375 20.3125H35.625V36.5625H4.375V20.3125Z" fill="#B8B2B8"/>
<path d="M16.25 32.8125H13.75L13.1597 32.3552L12.5 32.8125H10V20.3125H16.25V32.8125Z" fill="#FBBD80"/>
<path d="M12.5 20.3125H13.75V32.8125H12.5V20.3125Z" fill="#F4AA73"/>
<path d="M35.625 2.8125H3.75C3.40484 2.8125 3.125 3.09234 3.125 3.4375V10.3125L3.7932 11.5097L3.125 12.8125V32.8125L3.74938 33.4497H8.62922L13.125 21.5625C13.125 21.5625 17.4341 33.4176 17.4357 33.4242H36.25V3.4375C36.25 3.09234 35.9702 2.8125 35.625 2.8125Z" fill="#615260"/>
<path d="M36.25 2.8125H35.625V30.3125C35.625 31.6932 34.5057 32.8125 33.125 32.8125H15.9375L16.0141 33.1187C16.1527 33.6734 16.6512 34.0625 17.2229 34.0625H36.25C36.5952 34.0625 36.875 33.7827 36.875 33.4375V12.8125L36.25 11.5625L36.875 10.3125V3.4375C36.875 3.09234 36.5952 2.8125 36.25 2.8125Z" fill="#4E3D4D"/>
<path d="M10.2367 33.1156L10.3125 32.8125H3.125V33.4375C3.125 33.7827 3.40484 34.0625 3.75 34.0625H9.02664C9.60023 34.0625 10.0977 33.6721 10.2367 33.1156Z" fill="#4E3D4D"/>
<path d="M31.25 17.8125H23.75C23.4048 17.8125 23.125 17.5327 23.125 17.1875V15.9375C23.125 15.5923 23.4048 15.3125 23.75 15.3125H31.25C31.5952 15.3125 31.875 15.5923 31.875 15.9375V17.1875C31.875 17.5327 31.5952 17.8125 31.25 17.8125Z" fill="#FFE077"/>
<path d="M5.625 17.8125C5.27953 17.8125 5 17.533 5 17.1875V15.9375C5 15.592 5.27953 15.3125 5.625 15.3125C5.97047 15.3125 6.25 15.592 6.25 15.9375V17.1875C6.25 17.533 5.97047 17.8125 5.625 17.8125Z" fill="#FFD05B"/>
<path d="M20.625 17.8125C20.2795 17.8125 20 17.533 20 17.1875V15.9375C20 15.592 20.2795 15.3125 20.625 15.3125C20.9705 15.3125 21.25 15.592 21.25 15.9375V17.1875C21.25 17.533 20.9705 17.8125 20.625 17.8125Z" fill="#FFD05B"/>
<path d="M34.375 17.8125C34.0295 17.8125 33.75 17.533 33.75 17.1875V15.9375C33.75 15.592 34.0295 15.3125 34.375 15.3125C34.7205 15.3125 35 15.592 35 15.9375V17.1875C35 17.533 34.7205 17.8125 34.375 17.8125Z" fill="#FFD05B"/>
<path d="M39.375 37.1875H0.625C0.279531 37.1875 0 36.908 0 36.5625C0 36.217 0.279531 35.9375 0.625 35.9375H39.375C39.7205 35.9375 40 36.217 40 36.5625C40 36.908 39.7205 37.1875 39.375 37.1875Z" fill="#FCDBB2"/>
<path d="M35.625 12.8125H3.125V10.3125H35.625L36.25 11.5625L35.625 12.8125Z" fill="#FFE077"/>
<path d="M17.5 15.3125H8.75C8.40484 15.3125 8.125 15.5923 8.125 15.9375V32.8125L9.27398 33.3224C9.27398 33.3224 10.3132 32.81 10.3125 32.8125L12.7146 23.2038C12.8214 22.7766 13.4274 22.7724 13.5342 23.1996C14.1972 25.8511 15.4082 30.6952 15.9375 32.8125L17.0964 33.2545L18.125 32.8125V15.9375C18.125 15.5923 17.8452 15.3125 17.5 15.3125Z" fill="#FFE077"/>
<path d="M10.2367 33.1156L10.3125 32.8125H8.125V34.0625H9.02664C9.60023 34.0625 10.0977 33.6721 10.2367 33.1156Z" fill="#FFD05B"/>
<path d="M15.9375 32.8125C15.9645 32.9202 15.9901 33.0229 16.0141 33.1187C16.1532 33.6752 16.6524 34.0625 17.226 34.0625H18.125V32.8125H15.9375Z" fill="#FFD05B"/>
<path d="M35.625 10.3125H36.875V12.8125H35.625V10.3125Z" fill="#FFD05B"/>
</g>
<defs>
<clipPath id="clip0_376_9884">
<rect width="40" height="40" fill="white"/>
</clipPath>
</defs>
</svg>
