<svg width="40" height="40" viewBox="0 0 40 40" fill="none" xmlns="http://www.w3.org/2000/svg">
<path d="M32.3828 4H14.0685C11.6797 4 9.72522 5.95451 9.72522 8.34331V9.8212H26.292C28.6808 9.8212 30.6353 11.7757 30.6353 14.1645V24.9927H32.3828C34.7716 24.9927 36.7262 23.0382 36.7262 20.6494V8.34331C36.7262 5.95445 34.7716 4 32.3828 4Z" fill="#F4CC43"/>
<path d="M29.3034 9.62305H10.9891C10.5499 9.62305 10.1256 9.6896 9.72522 9.81231V9.82163H26.292C28.6808 9.82163 30.6353 11.7761 30.6353 14.1649V24.9932H32.3828C32.822 24.9932 33.2463 24.9266 33.6467 24.8039V13.9664C33.6467 11.5776 31.6922 9.62305 29.3034 9.62305Z" fill="#A78F3C"/>
<path d="M26.4911 9.62305H8.17681C5.78801 9.62305 3.8335 11.5776 3.8335 13.9664V26.2724C3.8335 28.6612 5.78801 30.6157 8.17681 30.6157H19.1688C19.64 30.6157 19.9918 31.0542 19.884 31.513C19.5925 32.754 19.1465 34.0663 18.4871 35.4117C18.191 36.0159 18.8646 36.6302 19.4368 36.276C21.0911 35.2522 23.4449 33.5386 25.4272 31.1161C25.6877 30.7977 26.0796 30.6156 26.4911 30.6156C28.8799 30.6156 30.8344 28.6611 30.8344 26.2723V13.9663C30.8344 11.5776 28.8799 9.62305 26.4911 9.62305Z" fill="#FFC122"/>
<path d="M22.6977 31.5125C22.8055 31.0537 22.4537 30.6152 21.9825 30.6152H19.1697C19.6409 30.6152 19.9927 31.0537 19.8849 31.5125C19.5934 32.7535 19.1474 34.0659 18.488 35.4112C18.1919 36.0154 18.8655 36.6297 19.4376 36.2756C20.0724 35.8827 20.8102 35.388 21.5904 34.791C22.0936 33.6627 22.4512 32.562 22.6977 31.5125Z" fill="#EEA538"/>
<path d="M6.64631 26.2724V13.9664C6.64631 11.5776 8.60082 9.62305 10.9896 9.62305H8.17681C5.78801 9.62305 3.8335 11.5776 3.8335 13.9664V26.2724C3.8335 28.6612 5.78801 30.6157 8.17681 30.6157H10.9896C8.60076 30.6157 6.64631 28.6613 6.64631 26.2724Z" fill="#EEA538"/>
<path d="M9.85355 21.9138C10.6495 21.9138 11.2948 21.2685 11.2948 20.4725C11.2948 19.6765 10.6495 19.0312 9.85355 19.0312C9.05757 19.0312 8.41229 19.6765 8.41229 20.4725C8.41229 21.2685 9.05757 21.9138 9.85355 21.9138Z" fill="white"/>
<path d="M14.5097 21.9138C15.3057 21.9138 15.951 21.2685 15.951 20.4725C15.951 19.6765 15.3057 19.0312 14.5097 19.0312C13.7138 19.0312 13.0685 19.6765 13.0685 20.4725C13.0685 21.2685 13.7138 21.9138 14.5097 21.9138Z" fill="white"/>
<path d="M19.1643 21.9138C19.9603 21.9138 20.6055 21.2685 20.6055 20.4725C20.6055 19.6765 19.9603 19.0312 19.1643 19.0312C18.3683 19.0312 17.723 19.6765 17.723 20.4725C17.723 21.2685 18.3683 21.9138 19.1643 21.9138Z" fill="white"/>
<path d="M23.8198 21.9138C24.6158 21.9138 25.2611 21.2685 25.2611 20.4725C25.2611 19.6765 24.6158 19.0312 23.8198 19.0312C23.0238 19.0312 22.3785 19.6765 22.3785 20.4725C22.3785 21.2685 23.0238 21.9138 23.8198 21.9138Z" fill="white"/>
<path d="M9.85355 20.4725C9.85355 19.9392 10.1436 19.4738 10.5742 19.2246C10.3621 19.1019 10.1162 19.0312 9.85355 19.0312C9.05756 19.0312 8.41229 19.6765 8.41229 20.4725C8.41229 21.2685 9.05756 21.9138 9.85355 21.9138C10.1162 21.9138 10.3622 21.8432 10.5742 21.7205C10.1435 21.4713 9.85355 21.0059 9.85355 20.4725Z" fill="white"/>
<path d="M14.5091 20.4725C14.5091 19.9392 14.7991 19.4738 15.2297 19.2246C15.0176 19.1019 14.7717 19.0312 14.5091 19.0312C13.7131 19.0312 13.0678 19.6765 13.0678 20.4725C13.0678 21.2685 13.7131 21.9138 14.5091 21.9138C14.7717 21.9138 15.0176 21.8432 15.2297 21.7205C14.799 21.4713 14.5091 21.0059 14.5091 20.4725Z" fill="white"/>
<path d="M19.1641 20.4725C19.1641 19.9392 19.4541 19.4738 19.8847 19.2246C19.6727 19.1019 19.4267 19.0312 19.1641 19.0312C18.3681 19.0312 17.7228 19.6765 17.7228 20.4725C17.7228 21.2685 18.3681 21.9138 19.1641 21.9138C19.4267 21.9138 19.6727 21.8432 19.8847 21.7205C19.4541 21.4713 19.1641 21.0059 19.1641 20.4725Z" fill="white"/>
<path d="M23.8191 20.4725C23.8191 19.9392 24.1091 19.4738 24.5398 19.2246C24.3277 19.1019 24.0817 19.0312 23.8191 19.0312C23.0231 19.0312 22.3779 19.6765 22.3779 20.4725C22.3779 21.2685 23.0231 21.9138 23.8191 21.9138C24.0818 21.9138 24.3278 21.8432 24.5398 21.7205C24.1091 21.4713 23.8191 21.0059 23.8191 20.4725Z" fill="white"/>
</svg>
