<svg width="40" height="40" viewBox="0 0 40 40" fill="none" xmlns="http://www.w3.org/2000/svg">
<path d="M12.7699 4.13301V8.6916L11.9887 10.2541L12.7699 11.8166V31.0627L3.56445 30.2814V11.8166L4.3457 10.2541L3.56445 8.6916V4.13301C3.56445 3.90723 3.74727 3.72363 3.97305 3.72363H12.3605C12.5863 3.72363 12.7699 3.90723 12.7699 4.13301Z" fill="#FF6B81"/>
<path d="M12.7699 4.13301V8.6916L11.9887 10.2541L12.7699 11.8166V36.0252H3.56445V33.4471H9.56836C10.4301 33.4471 11.1293 32.7479 11.1293 31.8861V4.13301C11.1293 3.90723 10.9457 3.72363 10.7199 3.72363H12.3605C12.5863 3.72363 12.7699 3.90723 12.7699 4.13301Z" fill="#ED2061"/>
<path d="M12.7699 30.2812V34.9305L3.56445 35.7117V30.2812H12.7699Z" fill="#56788B"/>
<path d="M3.56445 8.69141H12.7699V11.8164H3.56445V8.69141Z" fill="#FDEDA5"/>
<path d="M11.1289 8.69141H12.7695V11.8164H11.1289V8.69141Z" fill="#FBDF63"/>
<path d="M11.1293 30.2812H12.7699V34.9305H3.56445V33.4469H9.56836C10.4301 33.4469 11.1293 32.7477 11.1293 31.8859V30.2812Z" fill="#415E6F"/>
<path d="M6.81152 14.833C6.48793 14.833 6.22559 15.0954 6.22559 15.4189V26.8496C6.22559 27.1732 6.48793 27.4355 6.81152 27.4355C7.13512 27.4355 7.39746 27.1732 7.39746 26.8496V15.4189C7.39746 15.0954 7.13512 14.833 6.81152 14.833Z" fill="white"/>
<path d="M9.52325 16.6416C9.19966 16.6416 8.93732 16.9039 8.93732 17.2275V25.04C8.93732 25.3636 9.19966 25.626 9.52325 25.626C9.84685 25.626 10.1092 25.3636 10.1092 25.04V17.2275C10.1092 16.9039 9.84693 16.6416 9.52325 16.6416Z" fill="white"/>
<path d="M35.8863 27.6954L34.402 28.7212L32.1449 30.2813L27.0387 30.2376L22.1262 13.1391L22.4543 11.5649L21.2629 10.136L19.9934 5.71648C19.9317 5.50164 20.0559 5.27742 20.2707 5.21648L26.2723 3.49226L28.341 2.89773C28.5559 2.83601 28.7793 2.95945 28.841 3.17429L30.1113 7.5946L29.7418 9.02742L30.9738 10.5969L35.8863 27.6954Z" fill="#D4E16C"/>
<path d="M35.8863 27.6954L34.402 28.7212L27.2598 4.03757C27.1379 3.61492 26.6957 3.37039 26.2723 3.49226L28.341 2.89773C28.5559 2.83601 28.7793 2.95945 28.841 3.17429L30.1113 7.5946L29.7418 9.02742L30.9738 10.5969L35.8863 27.6954Z" fill="#A4CE39"/>
<path d="M30.9738 10.5971L29.2973 11.0791L22.1262 13.1393L21.2629 10.1361L28.4285 8.07832L30.1113 7.59473L30.9738 10.5971Z" fill="#FDEDA5"/>
<path d="M36.9586 32.8914L28.5 35.3211L27.9898 33.5461L27.0391 30.2375L34.2422 28.168L35.8867 27.6953L37.2359 32.3906C37.2969 32.6055 37.1734 32.8297 36.9586 32.8914Z" fill="#56788B"/>
<path d="M36.9582 32.8914L28.4996 35.3211L27.9894 33.5461L33.5894 31.8531C34.4652 31.5883 34.9652 30.668 34.7113 29.7891L34.2418 28.168L35.8863 27.6953L37.2355 32.3906C37.2965 32.6055 37.173 32.8297 36.9582 32.8914Z" fill="#415E6F"/>
<path d="M26.9014 15.4351C26.8121 15.1241 26.4874 14.9443 26.1765 15.0337C25.8655 15.1231 25.6858 15.4476 25.7751 15.7586L28.9314 26.7447C29.0053 27.0018 29.2396 27.169 29.4943 27.169C29.5479 27.169 29.6024 27.1616 29.6564 27.1461C29.9674 27.0568 30.1471 26.7322 30.0578 26.4212L26.9014 15.4351Z" fill="white"/>
<path d="M32.1643 23.9331L30.0069 16.4244C29.9176 16.1134 29.5931 15.9335 29.2819 16.023C28.9709 16.1123 28.7912 16.4369 28.8806 16.7479L31.0379 24.2566C31.1118 24.5137 31.3462 24.6809 31.6008 24.6809C31.6544 24.6809 31.7089 24.6735 31.7629 24.658C32.074 24.5687 32.2537 24.2441 32.1643 23.9331Z" fill="white"/>
<path d="M20.4133 7.27676V34.9307H12.7703V6.84863H19.9852C20.2219 6.84863 20.4133 7.04004 20.4133 7.27676Z" fill="#F9D11F"/>
<path d="M20.4133 7.27676V34.9307H18.7727V7.27676C18.7727 7.04004 18.5813 6.84863 18.3445 6.84863H19.9852C20.2219 6.84863 20.4133 7.04004 20.4133 7.27676Z" fill="#FFA402"/>
<path d="M20.4133 30.2812V35.7117L12.7703 34.9305V30.2812H20.4133Z" fill="#56788B"/>
<path d="M18.7727 30.2812H20.4133V34.9305H11.2078V33.4469H17.2117C18.0734 33.4469 18.7727 32.7477 18.7727 31.8859V30.2812Z" fill="#415E6F"/>
<path d="M12.7703 11.8164H20.4133V14.9414H12.7703V11.8164Z" fill="#FDEDA5"/>
<path d="M18.7723 11.8164H20.4129V14.9414H18.7723V11.8164Z" fill="#FBDF63"/>
<path d="M16.6198 17.8799C16.2962 17.8799 16.0338 18.1422 16.0338 18.4658V26.7714C16.0338 27.095 16.2962 27.3574 16.6198 27.3574C16.9433 27.3574 17.2057 27.095 17.2057 26.7714V18.4658C17.2057 18.1422 16.9433 17.8799 16.6198 17.8799Z" fill="white"/>
<path d="M40 36.0252C40 36.6291 39.5102 37.1189 38.9062 37.1189H1.09375C0.792188 37.1189 0.51875 36.9963 0.320312 36.7986C0.122656 36.601 0 36.3275 0 36.0252C0 35.4205 0.489844 34.9307 1.09375 34.9307H38.9062C39.2078 34.9307 39.4813 35.0533 39.6797 35.251C39.8773 35.4494 40 35.7229 40 36.0252Z" fill="#D77D41"/>
<path d="M39.6797 35.251C39.8773 35.4494 40 35.7229 40 36.0252C40 36.6291 39.5102 37.1189 38.9062 37.1189H36.7969C37.4008 37.1189 37.8906 36.6291 37.8906 36.0252C37.8906 35.7229 37.768 35.4494 37.5703 35.251C37.3719 35.0533 37.0984 34.9307 36.7969 34.9307H38.9062C39.2078 34.9307 39.4812 35.0533 39.6797 35.251Z" fill="#B5612A"/>
<path d="M29.2965 11.0791L28.4277 8.07832L30.1105 7.59473L30.973 10.5971L29.2965 11.0791Z" fill="#FBDF63"/>
</svg>
