<svg width="88" height="30" viewBox="0 0 88 30" fill="none" xmlns="http://www.w3.org/2000/svg">
<path fill-rule="evenodd" clip-rule="evenodd" d="M14.8766 0.0246514C14.7402 0.0434184 14.2937 0.0994714 13.8845 0.149324C12.0557 0.3718 10.1036 0.966392 8.34533 1.83654C5.00885 3.4877 2.31111 6.16965 0.98444 9.15427C0.215736 10.8837 -0.00599544 11.9452 0.00012244 13.8667C0.00516556 15.4512 0.185643 16.5528 0.666971 17.9366C2.0535 21.9232 4.8931 25.0394 9.14495 27.2405C11.2617 28.3363 14.4158 29.3162 16.6827 29.5821C17.7523 29.7076 20.6389 29.6341 21.7799 29.4522C26.4661 28.7054 32.0406 26.1517 37.4466 22.2754C39.3892 20.8824 41.8428 18.8828 43.2873 17.5153C43.7259 17.1001 44.1062 16.7603 44.1323 16.7603C44.1585 16.7603 44.6367 17.1425 45.195 17.6096C52.9887 24.1308 61.6244 28.6469 67.9947 29.5331C73.7475 30.3335 79.3027 28.5796 83.1581 24.7458C85.7754 22.1431 87.2551 19.0061 87.2572 16.0554C87.2595 13.0127 85.9138 9.63311 83.6044 6.88073C81.7081 4.62075 78.751 2.53364 76.0059 1.51791C72.1888 0.105424 69.0211 -0.228414 65.3579 0.395858C58.8126 1.5113 50.7676 5.9981 43.6718 12.4907L42.6216 13.4515L42.0171 12.8944C39.9537 10.9923 36.817 8.54322 34.1376 6.74225C28.6175 3.03184 23.5378 0.811212 19.1343 0.183468C18.2377 0.0556541 15.4167 -0.0495899 14.8766 0.0246514ZM20.2504 2.12871C24.3509 2.50868 28.6635 4.33123 33.7997 7.85488C36.2372 9.52704 38.4659 11.317 41.3636 13.9297L41.8083 14.3307L41.3223 14.7911C40.6685 15.4106 38.9643 16.8883 37.9001 17.7585C32.3001 22.3374 26.564 25.5055 21.5732 26.776C19.608 27.2763 18.491 27.4348 16.5916 27.4834C14.6123 27.5339 13.7641 27.4583 12.231 27.0948C9.67613 26.4891 7.83374 25.522 6.16678 23.9116C3.4516 21.2885 2.33244 17.3747 3.09255 13.1609C3.47475 11.0423 4.34828 9.43106 6.11197 7.59173C8.43883 5.16508 11.2252 3.53185 14.5068 2.67097C16.5745 2.12862 18.3946 1.95674 20.2504 2.12871ZM72.7484 2.21328C77.4837 2.7538 81.2519 5.13903 82.9959 8.69956C83.8745 10.4933 84.1507 11.7549 84.1547 13.9907C84.1595 16.7441 83.7036 18.3246 82.2988 20.4255C80.9556 22.4344 78.8403 24.2348 76.3105 25.5224C74.5852 26.4006 72.727 26.9876 70.6373 27.3146C69.2099 27.538 66.4955 27.518 65.0597 27.2735C62.28 26.8003 59.9965 26.0356 57.247 24.6575C53.4796 22.7691 49.0438 19.5929 45.9047 16.5361L45.1861 15.8363L45.698 15.3592C50.7347 10.6655 56.292 6.73712 60.7844 4.69474C63.8742 3.29011 66.7341 2.45634 69.4001 2.18311C70.0547 2.11597 72.0542 2.134 72.7484 2.21328Z" fill="#36B084"/>
</svg>
