<svg width="40" height="40" viewBox="0 0 40 40" fill="none" xmlns="http://www.w3.org/2000/svg">
<g clip-path="url(#clip0_379_10006)">
<path d="M4.5 34H35.5V26.2223V8.61628C35.5 8.29109 35.2935 8.01119 35.0065 7.94464L20.1265 4.51441C20.0428 4.4952 19.9572 4.4952 19.8735 4.51441L4.99352 7.94464C4.70584 8.01119 4.5 8.29178 4.5 8.61628V26.225V33.0773V34Z" fill="#464646"/>
<path d="M39.375 34H0.625C0.28 34 0 34.0815 0 34.1818V35.8182C0 35.9185 0.28 36 0.625 36H39.375C39.72 36 40 35.9185 40 35.8182V34.1818C40 34.0815 39.72 34 39.375 34Z" fill="#D9BC59"/>
<path d="M6.875 18.375C6.53 18.375 6.25 18.095 6.25 17.75V16.5C6.25 16.155 6.53 15.875 6.875 15.875C7.22 15.875 7.5 16.155 7.5 16.5V17.75C7.5 18.095 7.22 18.375 6.875 18.375Z" fill="#D9BC59"/>
<path d="M33.125 18.375C32.78 18.375 32.5 18.095 32.5 17.75V16.5C32.5 16.155 32.78 15.875 33.125 15.875C33.47 15.875 33.75 16.155 33.75 16.5V17.75C33.75 18.095 33.47 18.375 33.125 18.375Z" fill="#FFE077"/>
<path d="M18.125 16.5C17.78 16.5 17.5 16.22 17.5 15.875V14.625C17.5 14.28 17.78 14 18.125 14C18.47 14 18.75 14.28 18.75 14.625V15.875C18.75 16.22 18.47 16.5 18.125 16.5Z" fill="#D9BC59"/>
<path d="M21.875 16.5C21.53 16.5 21.25 16.22 21.25 15.875V14.625C21.25 14.28 21.53 14 21.875 14C22.22 14 22.5 14.28 22.5 14.625V15.875C22.5 16.22 22.22 16.5 21.875 16.5Z" fill="#FFE077"/>
<path d="M31.251 17.1255C31.2172 17.1255 31.1822 17.123 31.1472 17.1167L23.6472 15.8667C23.3072 15.8099 23.0772 15.488 23.1335 15.1474C23.1903 14.8074 23.5116 14.5767 23.8528 14.6336L31.3528 15.8836C31.6928 15.9405 31.9228 16.2624 31.8666 16.603C31.816 16.9086 31.551 17.1255 31.251 17.1255Z" fill="#FFE077"/>
<path d="M8.74926 17.1247C8.44926 17.1247 8.18426 16.9078 8.13364 16.6028C8.07676 16.2622 8.30676 15.9403 8.64739 15.8835L16.1474 14.6335C16.4899 14.5772 16.8099 14.8072 16.8668 15.1472C16.9236 15.4878 16.6936 15.8097 16.353 15.8666L8.85301 17.1166C8.81801 17.1222 8.78301 17.1247 8.74926 17.1247Z" fill="#D9BC59"/>
<path d="M39.375 32.6248C39.375 27.9505 32.6244 25.428 24.7969 24.7148L26.2194 26.3748L24.425 28.4686C31.0725 29.1361 36.0831 31.2698 36.7831 33.8748H39.1937C39.3087 33.4761 39.375 33.0611 39.375 32.6248Z" fill="#FFE077"/>
<path d="M20 28.25V30.75L23.75 26.375L20 22V24.5C10.3562 24.5 0.625 27.0125 0.625 32.625C0.625 33.0612 0.69125 33.4762 0.80625 33.875H3.20938C4.05625 30.7169 11.25 28.25 20 28.25Z" fill="#FFE077"/>
<path d="M4.5 11.625V14.125L20 11V8.5L4.5 11.625Z" fill="#D9BC59"/>
<path d="M20 8.5V11L35.5 14.125V11.625L20 8.5Z" fill="#FFE077"/>
</g>
<defs>
<clipPath id="clip0_379_10006">
<rect width="40" height="40" fill="white"/>
</clipPath>
</defs>
</svg>
